#!OML:ASF F:\VICON\USERDATA\INSTALL\rory3\rory3.ASF
:FULLY-SPECIFIED
:DEGREES
33
root -0.17690460380034978 17.419187335606622 23.00288875058658 3.6364477434932785 -2.2594522757294877 -7.153318770088042
lfemur -38.25834067119596 8.279277032596237 -10.266857230853681
ltibia 95.90059693496318
lfoot -6.455306723910474 -3.6652717271774136
ltoes -12.924630673571837
rfemur -6.78396528673251 3.2151323869661304 35.697744806488345
rtibia 44.013111560253755
rfoot -9.203811675152409 -11.655307802265625
rtoes -10.525717877732923
lowerback 17.140651552888038 2.02637109726579 5.954086697463521
upperback -0.5311570023933934 4.037261024292572 3.0672136569706243
thorax -10.045627471318282 1.6406237972704818 -1.9958347085459258
lowerneck -21.554891238564238 -4.619253520591935 -1.26667134454852
upperneck 12.80261441873793 -6.315048157771535 2.3233622797331277
head 7.61148137302113 -2.89451202502506 0.26794485372988036
lclavicle -1.780704808070671e-15 -2.8550639589877455e-15
lhumerus -58.07641665806672 -13.80012142158969 101.13479006687427
lradius 99.58869712828017
lwrist 36.12249940338244
lhand -24.090127387821695 2.4665006935513016
lfingers nan
lthumb 2.371446565176945 32.260305429597274
rclavicle -1.9076522892717036e-15 -2.9513536424917614e-15
rhumerus -42.63635872972526 8.941777926429934 -92.65845974187924
rradius 112.00114802940337
rwrist -11.309257538857526
rhand -16.57498062462636 39.5303508124926
rfingers nan
rthumb 9.899435526136381 10.026798542486175
34
root -0.1159623952580918 17.6002828212886 24.502690559923884 3.599489675276279 -0.3516751466599475 -6.886119073995291
lfemur -41.718566410071716 5.792274890519765 -12.703048416829743
ltibia 87.89661110716115
lfoot -3.992405231012459 -2.5831492803074223
ltoes -15.813038663422851
rfemur -1.1758342658899714 1.7619576633424452 34.722722602798505
rtibia 39.81482295921254
rfoot 0.8278135990027176 -7.506217497657315
rtoes -9.081278323618445
lowerback 16.530106108643743 2.2467495407559617 6.5678471869463895
upperback -0.9868075874189877 4.341605854599129 2.827550575750762
thorax -9.739113642207379 1.7561618855773617 -2.9473301724042025
lowerneck -20.911471938424874 -4.941400305359063 -1.392646747678687
upperneck 13.136436979877175 -6.803284833337518 2.348042114714656
head 7.629054030948597 -3.137140009509015 0.2430124415259487
lclavicle -1.7724648579991771e-15 -2.8526603632930214e-15
lhumerus -60.97035634919025 -12.14531241788724 100.97208093568989
lradius 100.61042521618621
lwrist 36.67559567780894
lhand -23.840748585698353 1.9049230261170773
lfingers nan
lthumb 2.619148764257496 31.63155741641428
rclavicle -1.9196441067677066e-15 -2.9639314950031883e-15
rhumerus -41.60046116047671 10.183666483908002 -92.4969864983151
rradius 113.84007553532074
rwrist -11.315614675103763
rhand -16.67278388135521 39.852433654333446
rfingers nan
rthumb 9.784039315916624 10.37396991775654
35
root -0.04596497746247172 17.797039157927856 26.20285328002904 3.508471817959191 0.786678953729973 -6.310129808230371
lfemur -43.23009820596253 3.0351919089701824 -14.96936628583612
ltibia 77.70122037936746
lfoot -3.551971394602594 -4.103602538300514
ltoes -17.896170449294445
rfemur 4.173849598656886 1.3047392808948588 33.826583847949465
rtibia 35.7362486172765
rfoot 12.263962419706873 -5.188939021585468
rtoes -3.1019181076788813
lowerback 15.912012971035013 2.6002443477669974 6.784219736413864
upperback -1.467033742186039 4.653433628648134 2.342836438468458
thorax -9.502538952005377 1.8751195495147832 -3.559508385480626
lowerneck -20.16997392093895 -5.141745781559953 -1.4630790855747247
upperneck 13.774879287992515 -7.145254706113628 2.3289990770497373
head 7.750400479483368 -3.2848090912658217 0.21232362894291967
lclavicle -1.7701330283779092e-15 -2.854668053231632e-15
lhumerus -63.208014277104205 -10.839271971156952 100.67479548066561
lradius 102.01552174036053
lwrist 37.3378489749395
lhand -23.802895276545676 1.5948790975254514
lfingers nan
lthumb 2.6517642323878574 31.31706139651074
rclavicle -1.918580486267318e-15 -2.9660431142937626e-15
rhumerus -41.01038887836875 11.564435279386435 -92.5770723033598
rradius 115.33911411766995
rwrist -10.843539898865492
rhand -16.786759311595272 40.01443943015607
rfingers nan
rthumb 9.697603430978225 10.490356296901433
36
root 0.03175867829478565 18.03439273903013 27.728541870900898 3.4530089256068797 2.652852241631562 -5.609845425690857
lfemur -42.51048833987668 0.5950588275539179 -16.776899611482776
ltibia 65.6198277894061
lfoot -2.5052700894944215 -5.147574650641852
ltoes -20.425934318668165
rfemur 7.430281873466065 1.445782958868993 32.96178674386102
rtibia 34.479456806101666
rfoot 20.9563941160052 -5.200936561568135
rtoes 5.0696820187963
lowerback 14.898530556006172 2.475026878699373 6.748939803118271
upperback -2.0060724835139068 4.446692529221406 1.8987096460978394
thorax -9.34604159486241 1.8569215738965934 -3.582500309361718
lowerneck -19.703510280013877 -5.211505761849147 -1.5486384331412875
upperneck 14.43819271027055 -7.28658399842785 2.361801703141897
head 7.947019598425289 -3.303555033935639 0.22510698414564434
lclavicle -1.7664825529967897e-15 -2.853777243870379e-15
lhumerus -64.72065264288065 -9.947610179164593 100.35126811968343
lradius 103.65274086207161
lwrist 37.580179221202506
lhand -24.37079132851155 0.9107443286625155
lfingers nan
lthumb 2.200647726893684 30.955345457482803
rclavicle -1.9060740219786236e-15 -2.957643004988006e-15
rhumerus -41.00326030445075 12.74449085524678 -92.8750454590925
rradius 116.45893555534013
rwrist -10.273619140528343
rhand -16.759086802502825 40.089174834969405
rfingers nan
rthumb 9.79317287965533 10.49970557125528
